<svg xmlns="http://www.w3.org/2000/svg" viewBox="0 0 512 512"><defs><linearGradient id="f" x2="0" y2="1"><stop stop-color="#fffaf2"/><stop offset="1" stop-color="#ead8cf"/></linearGradient></defs><ellipse cx="256" cy="430" rx="150" ry="30" fill="#6f5878" opacity=".12"/><path d="M138 170l30-82 56 58M374 170l-30-82-56 58" fill="#f2e2d8" stroke="#7b5a68" stroke-width="12" stroke-linejoin="round"/><ellipse cx="256" cy="300" rx="132" ry="150" fill="url(#f)" stroke="#7b5a68" stroke-width="12"/><circle cx="210" cy="246" r="12" fill="#514353"/><circle cx="302" cy="246" r="12" fill="#514353"/><path d="M248 277q8 8 16 0M256 278q-2 34-30 34m30-34q2 34 30 34" fill="none" stroke="#9d6c79" stroke-width="8" stroke-linecap="round"/><ellipse cx="188" cy="286" rx="22" ry="12" fill="#f5b8bd" opacity=".7"/><ellipse cx="324" cy="286" rx="22" ry="12" fill="#f5b8bd" opacity=".7"/><path d="M150 384q-54-26-58 30 4 48 72 12" fill="none" stroke="#d8c0b6" stroke-width="28" stroke-linecap="round"/><path d="M190 393q18 18 38 0M284 393q18 18 38 0" fill="none" stroke="#7b5a68" stroke-width="9" stroke-linecap="round"/></svg>