<svg xmlns="http://www.w3.org/2000/svg" viewBox="0 0 1024 1024">
<defs><linearGradient id="wood" x1="0" y1="0" x2="0" y2="1"><stop stop-color="#D9A66B"/><stop offset="1" stop-color="#A96F45"/></linearGradient><filter id="shadow" x="-20%" y="-20%" width="140%" height="150%"><feDropShadow dx="0" dy="18" stdDeviation="18" flood-color="#5B405F" flood-opacity=".28"/></filter></defs>
<g filter="url(#shadow)"><rect x="32" y="28" width="960" height="960" rx="78" fill="url(#wood)" stroke="#7D4E39" stroke-width="12"/><rect x="66" y="62" width="892" height="892" rx="54" fill="#FFF7ED" stroke="#F2D6B9" stroke-width="8"/><path d="M78 104 C155 60 222 79 264 64" stroke="#F7D69B" stroke-width="9" fill="none" opacity=".7"/><path d="M755 950 C842 918 907 924 946 881" stroke="#85573E" stroke-width="8" fill="none" opacity=".25"/></g>
<g fill="#789A58"><ellipse cx="88" cy="92" rx="34" ry="18" transform="rotate(-28 88 92)"/><ellipse cx="129" cy="66" rx="30" ry="15" transform="rotate(22 129 66)"/><ellipse cx="917" cy="931" rx="35" ry="17" transform="rotate(33 917 931)"/><ellipse cx="952" cy="896" rx="27" ry="14" transform="rotate(-16 952 896)"/></g>
</svg>