<svg xmlns="http://www.w3.org/2000/svg" viewBox="0 0 1080 1920"><defs><linearGradient id="sky" x2="0" y2="1"><stop stop-color="#bdeeff"/><stop offset=".58" stop-color="#e7fbff"/><stop offset="1" stop-color="#fff0d5"/></linearGradient><linearGradient id="sea" x2="0" y2="1"><stop stop-color="#67cddd"/><stop offset="1" stop-color="#4fb1c7"/></linearGradient></defs><rect width="1080" height="1920" fill="url(#sky)"/><circle cx="820" cy="290" r="105" fill="#fff5b7" opacity=".85"/><path d="M0 1020Q280 980 540 1025T1080 1015V1390H0Z" fill="url(#sea)" opacity=".86"/><path d="M0 1330Q290 1280 560 1345T1080 1325V1920H0Z" fill="#f5d7a1"/><path d="M0 1450Q310 1360 590 1450T1080 1410V1920H0Z" fill="#efd09a"/><g fill="#4f927f"><path d="M80 0h55v540H80z"/><path d="M940 0h48v480h-48z"/></g><g fill="#62a88d"><path d="M0 520q140-150 310-75-160 60-310 225z"/><path d="M1080 430q-160-130-310-45 160 55 310 210z"/></g><g fill="none" stroke="#f8ffff" stroke-width="18" opacity=".8"><path d="M80 1110q180-55 350 0t360 0t260 5"/><path d="M0 1210q170-55 350 0t360 0t370 0"/></g></svg>