<svg xmlns="http://www.w3.org/2000/svg" viewBox="0 0 1080 1920"><defs><linearGradient id="g" x2="0" y2="1"><stop stop-color="#cdd9e8"/><stop offset=".55" stop-color="#dfe6ee"/><stop offset="1" stop-color="#f1ebe3"/></linearGradient><linearGradient id="w" x2="0" y2="1"><stop stop-color="#aebed3"/><stop offset="1" stop-color="#d7e3ef"/></linearGradient></defs><rect width="1080" height="1920" fill="url(#g)"/><rect x="68" y="170" width="305" height="1210" rx="28" fill="#f6efe8" opacity=".86"/><rect x="100" y="205" width="240" height="1140" rx="18" fill="url(#w)"/><g stroke="#ecf5ff" stroke-width="7" stroke-linecap="round" opacity=".68"><path d="M145 300l-18 42"/><path d="M228 420l-18 42"/><path d="M302 560l-18 42"/><path d="M160 700l-18 42"/><path d="M270 850l-18 42"/><path d="M190 1020l-18 42"/><path d="M318 1160l-18 42"/></g><path d="M884 120q-95 160-52 340t-34 310" fill="none" stroke="#6f8d78" stroke-width="26" stroke-linecap="round" opacity=".65"/><g fill="#88a88f" opacity=".72"><ellipse cx="837" cy="260" rx="42" ry="67"/><ellipse cx="900" cy="350" rx="44" ry="72"/><ellipse cx="824" cy="470" rx="39" ry="66"/><ellipse cx="885" cy="585" rx="43" ry="70"/></g><rect y="1560" width="1080" height="360" fill="#d8c8bd" opacity=".42"/></svg>