<svg xmlns="http://www.w3.org/2000/svg" width="300" height="100" viewBox="0 0 300 100"><defs><linearGradient id="p" x1="0" x2="1"><stop offset="0" stop-color="#f8dfb0"/><stop offset="1" stop-color="#e6a660"/></linearGradient></defs><path d="M25 35Q38 18 74 18H258Q277 18 284 32Q290 48 274 58Q264 64 242 64H70Q39 64 27 54Q17 46 25 35Z" fill="#8a4a2a"/><path d="M29 32Q42 21 74 21H255Q271 21 278 33Q282 43 270 51Q260 57 240 57H72Q43 57 32 51Q24 45 29 32Z" fill="url(#p)"/><rect x="142" y="58" width="30" height="28" rx="9" fill="#b56d39"/></svg>